<?xml version="1.0" standalone="no"?><!DOCTYPE svg PUBLIC "-//W3C//DTD SVG 1.1//EN" "http://www.w3.org/Graphics/SVG/1.1/DTD/svg11.dtd"><svg t="1554861892113" class="icon" style="" viewBox="0 0 1024 1024" version="1.1" xmlns="http://www.w3.org/2000/svg" p-id="3428" xmlns:xlink="http://www.w3.org/1999/xlink" width="64" height="64"><defs><style type="text/css"></style></defs><path d="M245.5 944.6v-42.5C268 845.6 298 793 335.3 744.6c37.3-48.4 87.4-99.7 150.1-153.9 73.8-64 124.8-117 152.9-159.1 28.1-42 42.2-88.7 42.2-140 0-55-16-98-48-129.2s-75.7-46.8-131-46.8c-49.2 0-91.2 15.1-125.8 45.3s-54.7 71.4-60 123.7l-59.1-9.9c6.2-62.8 31.6-113.6 76.3-152.2s101.5-57.9 170.5-57.9c73.4 0 131.5 19.4 174.2 58.2 42.7 38.8 64 92.6 64 161.6 0 40.2-6.1 76.3-18.2 108.3s-31.9 64.8-59.4 98.5-72.4 78.4-134.7 134.2C478 671 434.4 715 398.5 757.4c-35.9 42.5-63.9 86.9-84 133.3h440v54h-509z" p-id="3429" fill="#ffffff"></path></svg>