<?xml version="1.0" standalone="no"?><!DOCTYPE svg PUBLIC "-//W3C//DTD SVG 1.1//EN" "http://www.w3.org/Graphics/SVG/1.1/DTD/svg11.dtd"><svg t="1554861978238" class="icon" style="" viewBox="0 0 1024 1024" version="1.1" xmlns="http://www.w3.org/2000/svg" p-id="4512" xmlns:xlink="http://www.w3.org/1999/xlink" width="64" height="64"><defs><style type="text/css"></style></defs><path d="M759.5 707c0 79.3-22.6 140.8-67.9 184.8-45.3 43.9-108.7 65.9-190.2 65.9-79.1 0-140.6-17.7-184.7-53.2-44-35.5-70.8-90.1-80.2-163.8l58.3-8c8.2 59.8 29.6 103.8 64.2 131.9s82 42.1 142.2 42.1c66.3 0 116-16.8 148.9-50.5s49.4-82.8 49.4-147.3c0-37-8.9-68.6-26.7-94.9-17.8-26.3-44.8-46.4-81-60.4s-78.1-21-125.5-21h-57.7v-57h55.8c41.7 0 79.2-7.6 112.5-22.8 33.3-15.2 58.3-36.1 74.8-62.6s24.8-57.7 24.8-93.5c0-58.4-15.8-103.4-47.5-134.8s-76.5-47.2-134.6-47.2c-55.6 0-99.5 14-131.8 42.1s-51.1 68.7-56.4 121.9l-57.6-5.5c7.8-67.4 33.2-119 76.4-154.8 43.2-35.8 100-53.7 170.3-53.7 76.5 0 135.8 20.2 178 60.7s63.2 96.4 63.2 167.8c0 51.7-15.9 96.4-47.5 134-31.7 37.6-73.5 61.9-125.5 73v2.5c60.6 7.8 108.4 30.2 143.5 67.1 34.9 36.8 52.5 82.6 52.5 137.2z" p-id="4513" fill="#ffffff"></path></svg>